<svg width="330" height="81" viewBox="0 0 330 81" fill="none" xmlns="http://www.w3.org/2000/svg">
<g clip-path="url(#clip0_4_2)">
<path fill-rule="evenodd" clip-rule="evenodd" d="M69.2855 19.0166C67.1714 19.5047 67.0461 26.2619 68.8653 34.1416C70.6845 42.0213 73.7593 48.0397 75.8733 47.5516C77.9874 47.0635 79.3175 41.2212 77.4983 33.3415C75.6792 25.4618 71.3996 18.5285 69.2855 19.0166ZM4.99997 58.214C1.23058 53.7012 0 47.4545 0 39.6354C0 27.603 5.02745 17.5898 13.2142 10.1351C20.3293 3.65624 29.8605 0 40.1784 0C52.2833 0 61.562 3.72436 68.9282 12.3069C75.0652 19.4572 80.3567 29.4141 80.3567 39.6354C80.3567 47.0757 79.1523 52.7097 75.7139 57.1426C72.8919 60.7806 68.9542 63.5243 64.2788 65.5005C64.2215 69.7951 63.6849 74.4511 58.9207 77.1424C54.752 79.4973 45.4853 79.9996 39.6079 79.9996C31.9648 79.9996 24.3251 80.118 19.9375 76.4282C17.1195 74.0583 15.9414 69.1868 15.696 65.6646C11.3821 63.8939 7.70966 61.458 4.99997 58.214ZM39.9998 44.2855C50.6509 44.2855 59.2854 35.651 59.2854 24.9999C59.2854 14.3487 50.6509 5.71425 39.9998 5.71425C29.3486 5.71425 20.7142 14.3487 20.7142 24.9999C20.7142 35.651 29.3486 44.2855 39.9998 44.2855ZM4.38418 46.5821C6.47993 47.1437 9.76288 41.2363 11.8559 33.4249C13.949 25.6134 14.0596 18.856 11.9638 18.2944C9.86809 17.7329 5.95085 22.2669 3.85778 30.0783C1.76472 37.8898 2.28843 46.0206 4.38418 46.5821ZM21.0713 73.8207C24.9153 76.3438 32.2915 76.7853 39.2855 76.7853C47.0418 76.7853 55.6419 76.758 59.6425 73.3972C62.0004 71.4164 62.1425 65.8459 62.1425 63.2872C62.1425 62.2223 61.8607 60.6361 61.0711 59.6425C59.3818 57.5168 56.1159 56.1874 53.5711 54.9997C49.598 53.1454 46.5334 52.8569 40.1784 52.8569C34.3177 52.8569 29.8661 53.4212 25.7141 54.9997C22.3845 56.2656 18.3369 58.2346 17.1428 60.3568C16.6938 61.1548 17.1428 62.298 17.1428 63.2872C17.1428 66.2726 18.1398 71.8966 21.0713 73.8207ZM31.4284 70.3568C30.2449 70.3568 29.2856 69.1626 29.2856 63.2139C29.2856 57.2653 30.2449 56.0711 31.4284 56.0711C32.6119 56.0711 33.5712 57.2653 33.5712 63.2139C33.5712 69.1626 32.6119 70.3568 31.4284 70.3568ZM48.5712 70.3568C47.3877 70.3568 46.4283 69.1626 46.4283 63.2139C46.4283 57.2653 47.3877 56.0711 48.5712 56.0711C49.7546 56.0711 50.714 57.2653 50.714 63.2139C50.714 69.1626 49.7546 70.3568 48.5712 70.3568Z" fill="white"/>
<path d="M133.425 9.30956V19.7026C131.56 18.0148 128.629 17.926 127.829 17.926C123.299 17.926 123.032 22.7227 123.032 26.3647V28.4078H133.425V39.2449H123.032V72.2894H109.886V39.2449H105V28.4078H109.886V26.3647C109.886 12.5074 115.038 7 126.23 7C128.895 7 131.382 8.06595 133.425 9.30956V9.30956ZM138.967 53.4576V28.4078H152.114V53.4576C152.114 60.2086 153.979 63.0511 159.042 63.0511C164.372 63.0511 167.481 60.2086 167.481 53.4576V28.4078H180.628V72.2894H167.481V68.2921C164.994 71.4011 159.575 73 155.756 73C143.408 73 138.967 67.1373 138.967 53.4576V53.4576ZM229.252 47.2396V72.2894H216.105V47.2396C216.105 40.5774 214.328 37.646 209.176 37.646C203.846 37.646 200.737 40.5774 200.737 47.2396V72.2894H187.591V28.4078H200.737V32.5828C204.113 29.2961 208.732 27.786 212.552 27.786C224.899 27.786 229.252 33.7375 229.252 47.2396V47.2396ZM265.173 72.2894L250.96 54.2571C250.605 54.6124 249.983 55.0565 249.45 55.5007V72.2894H236.214V7.79946H249.45V39.4226L262.064 28.4078H281.695L260.465 46.1736C266.949 54.1682 275.477 64.5612 281.695 72.2894H265.173V72.2894ZM306.246 38.6231C300.827 38.6231 296.297 43.4199 296.297 50.4374C296.297 57.3661 300.827 62.1628 306.246 62.1628C311.753 62.1628 316.284 57.3661 316.284 50.4374C316.284 43.4199 311.753 38.6231 306.246 38.6231V38.6231ZM306.246 27.786C319.126 27.786 329.43 37.4684 329.43 50.4374C329.43 63.4065 319.126 73 306.246 73C293.455 73 283.15 63.4065 283.15 50.4374C283.15 37.4684 293.455 27.786 306.246 27.786Z" fill="white"/>
</g>
<defs>
<clipPath id="clip0_4_2">
<rect width="329.43" height="80.8602" fill="white"/>
</clipPath>
</defs>
</svg>
