<svg width="310" height="181" viewBox="0 0 310 181" fill="none" xmlns="http://www.w3.org/2000/svg">
<g clip-path="url(#clip0_1_2)">
<path d="M4.28888 5.31823L0 0H67.421V27.1057H20.9295L27.9635 32.4239V76.3419H55.5838V103.448H20.9295L27.9635 108.766V179.619H4.2892V5.3181L4.28888 5.31823ZM99.1592 153.025H126.779V27.6214H92.1251L99.1592 32.9397V153.031V153.025ZM150.455 17.4961V163.149C150.455 172.756 142.906 180.134 133.3 180.134H75.4855V153.028V5.83473L71.1966 0.516505H133.299C142.735 0.516505 150.455 8.40774 150.455 17.5007L150.455 17.4961ZM160.747 5.83152L156.458 0.513292H223.879V27.619H177.388L184.422 32.9372V76.6839H212.214V103.961H177.388L184.422 109.108V153.026H223.88V180.131H160.747V153.026V103.961V76.6835V5.82985L160.747 5.83152ZM227.139 0.512521H254.588L270.543 129.522L286.326 0.512521H310L288.041 180.133H252.872L231.599 5.83152H231.427L227.139 0.512521Z" fill="white"/>
</g>
<defs>
<clipPath id="clip0_1_2">
<rect width="310" height="180.134" fill="white"/>
</clipPath>
</defs>
</svg>
